<svg xmlns="http://www.w3.org/2000/svg" height="40" viewBox="0 96 960 960" width="40"><path d="M480 567.333q-72.975 0-120.487-47.512Q312 472.309 312 399.334t47.513-120.487Q407.025 231.334 480 231.334t120.487 47.513Q648 326.359 648 399.334t-47.513 120.487Q552.975 567.333 480 567.333Zm-340 369V816q0-41 19.959-71.535Q179.917 713.931 212 698q68-32.666 134.272-48.666 66.272-16 133.666-16 67.395 0 133.395 16.333 66 16.333 133.947 48.463 32.951 16.014 52.835 46.442Q820 775 820 816v120.333H140Zm84-84h512V816q0-14.333-6.716-25.783-6.717-11.449-16.951-16.217-61.666-29.667-118.166-43.167T480 717.333q-57.667 0-114.5 13.333Q308.667 744 247.667 774 237 778.666 230.5 790.04 224 801.414 224 816v36.333Zm256-368.999q36 0 60-24t24-60q0-36-24-60t-60-24q-36 0-60 24t-24 60q0 36 24 60t60 24Zm0-84Zm0 452.999Z"/></svg>